<?xml version="1.0" encoding="utf-8"?>
<!-- Generator: Adobe Illustrator 19.0.0, SVG Export Plug-In . SVG Version: 6.00 Build 0)  -->
<svg version="1.1" id="图层_1" xmlns="http://www.w3.org/2000/svg" xmlns:xlink="http://www.w3.org/1999/xlink" x="0px" y="0px"
	 viewBox="0 0 36 36" style="enable-background:new 0 0 36 36;" xml:space="preserve">
<style type="text/css">
	.st0{fill:#231815;}
</style>
<path id="XMLID_16_" class="st0" d="M25.4,32.4c-0.5,0-1-0.1-1.5-0.4l-5.4-2.9c-0.4-0.2-0.8-0.2-1.1,0l-5.4,2.8
	c-1.1,0.6-2.4,0.5-3.4-0.3c-1-0.7-1.5-1.9-1.3-3.2l1.1-6c0.1-0.4-0.1-0.8-0.3-1.1l-4.4-4.3c-0.9-0.9-1.2-2.1-0.8-3.3
	c0.4-1.2,1.4-2,2.6-2.2l6.1-0.9c0.4-0.1,0.7-0.3,0.9-0.7l2.7-5.5c0.6-1.1,1.7-1.8,2.9-1.8c0,0,0,0,0,0c1.2,0,2.3,0.7,2.9,1.8
	l2.7,5.5c0.2,0.4,0.5,0.6,0.9,0.7l6,0.9c1.2,0.2,2.2,1,2.6,2.2c0.4,1.2,0.1,2.4-0.8,3.3L28,21.5c-0.3,0.3-0.4,0.7-0.4,1.1l1,6
	c0.2,1.2-0.3,2.4-1.3,3.2C26.7,32.2,26.1,32.4,25.4,32.4z M17.9,27c0.5,0,1,0.1,1.5,0.4l5.4,2.9c0.4,0.2,0.9,0.2,1.3-0.1
	c0.4-0.3,0.6-0.7,0.5-1.2l-1-6c-0.2-1,0.2-2.1,0.9-2.9l4.4-4.2c0.3-0.3,0.5-0.8,0.3-1.3c-0.1-0.5-0.5-0.8-1-0.8l-6-0.9
	c-1.1-0.2-2-0.8-2.4-1.8l-2.7-5.5c-0.2-0.4-0.6-0.7-1.1-0.7c0,0,0,0,0,0c-0.5,0-0.9,0.3-1.1,0.7L14.2,11c-0.5,1-1.4,1.6-2.4,1.8
	l-6.1,0.9c-0.5,0.1-0.8,0.4-1,0.8c-0.2,0.5,0,0.9,0.3,1.3L9.4,20c0.8,0.7,1.1,1.8,0.9,2.9l-1.1,6c-0.1,0.5,0.1,0.9,0.5,1.2
	c0.4,0.3,0.9,0.3,1.3,0.1l5.4-2.8C16.9,27.1,17.4,27,17.9,27z"/>
</svg>
